<?xml version="1.0" encoding="UTF-8"?>
<!-- Generator: Adobe Illustrator 19.2.1, SVG Export Plug-In . SVG Version: 6.00 Build 0)  -->
<svg version="1.1" id="Layer_1" xmlns="http://www.w3.org/2000/svg" xmlns:xlink="http://www.w3.org/1999/xlink" x="0px" y="0px" viewBox="0 0 809.9 228" width="620" height="180" style="enable-background:new 0 0 809.9 228;" xml:space="preserve">
<style type="text/css">
	.st0{fill:#0080C7;}
	.st1{fill:#FBB031;}
	.st2{fill:#231F20;}
	.st3{fill:#00A551;}
	.st4{fill:#ED334E;}
	.st5{fill:url(#SVGID_1_);}
	.st6{fill:url(#SVGID_2_);}
	.st7{fill:url(#SVGID_3_);}
	.st8{fill:#004B88;}
	.st9{fill:url(#SVGID_4_);}
	.st10{fill:url(#SVGID_5_);}
	.st11{fill:url(#SVGID_6_);}
	.st12{fill:url(#SVGID_7_);}
	.st13{fill:#F49B20;}
	.st14{fill:#C01A34;}
	.st15{fill:#0862A9;}
	.st16{fill:#008F55;}
	.st17{fill:#004B87;}
	.st18{fill:#ED1C24;}
</style>
<g>
	<path d="M275.2,187.7h3.6l5.1,13.6h-3.7l-0.8-2.4h-4.7l-0.9,2.4h-3.6L275.2,187.7z M275.4,196.2h3.1l-1.5-4.7h0L275.4,196.2z"/>
	<path d="M294.4,201.3h-3.1v-1.3h0c-0.6,1-1.9,1.6-3,1.6c-2.8,0-3.6-1.6-3.6-4.2v-5.9h3.2v5.7c0,1.3,0.6,1.8,1.6,1.8   c0.7,0,1.8-0.5,1.8-2.2v-5.3h3.2V201.3z"/>
	<path d="M299.2,198c0,0.5,0.2,0.9,0.5,1.1c0.3,0.2,0.7,0.3,1.2,0.3c0.6,0,1.5-0.3,1.5-1c0-0.8-1-0.9-1.6-1c-2-0.5-4.6-0.6-4.6-3.2   c0-2.4,2.6-3,4.5-3c2.2,0,4.4,0.6,4.5,3.2h-3c0-0.4-0.2-0.7-0.4-0.9c-0.3-0.2-0.6-0.2-1-0.2c-0.5,0-1.4,0.1-1.4,0.7   c0,0.9,2.2,1.1,3.6,1.4c2,0.4,2.5,1.8,2.5,2.7c0,2.6-2.5,3.5-4.7,3.5c-2.3,0-4.7-0.8-4.8-3.5H299.2z"/>
	<path d="M313.2,193.5h-2v4.5c0,0.8,0.5,0.9,1.2,0.9c0.3,0,0.6,0,0.8,0v2.4c-0.6,0-1.2,0.1-1.8,0.1c-2.8,0-3.5-0.8-3.5-3.5v-4.4   h-1.6v-2.1h1.6v-3h3.2v3h2V193.5z"/>
	<path d="M314.9,191.4h3.1v1.7h0c0.5-1.3,1.6-1.9,3-1.9c0.2,0,0.5,0,0.8,0.1v2.9c-0.4-0.1-0.8-0.2-1.2-0.2c-1.6,0-2.4,1.1-2.4,2.3   v4.9h-3.2V191.4z"/>
	<path d="M322.8,194.5c0.1-1.3,0.7-2.1,1.5-2.6c0.9-0.5,2-0.7,3.1-0.7c2.3,0,4.6,0.5,4.6,3.3v4.3c0,0.8,0,1.7,0.4,2.5h-3.2   c-0.1-0.3-0.2-0.6-0.2-0.9c-0.8,0.9-2.1,1.2-3.2,1.2c-1.9,0-3.4-0.9-3.4-3c0-3.2,3.5-3,5.7-3.4c0.6-0.1,0.9-0.3,0.9-0.9   c0-0.7-0.9-1-1.6-1c-0.9,0-1.5,0.4-1.6,1.2H322.8z M327,199.6c1.5,0,2.1-0.9,2-2.9c-0.5,0.3-1.3,0.3-2,0.5   c-0.7,0.2-1.3,0.5-1.3,1.3C325.6,199.2,326.2,199.6,327,199.6z"/>
	<path d="M334.3,187.7h3.2v13.6h-3.2V187.7z"/>
	<path d="M343,190.2h-3.2v-2.5h3.2V190.2z M339.8,191.4h3.2v9.9h-3.2V191.4z"/>
	<path d="M345.1,194.5c0.1-1.3,0.7-2.1,1.5-2.6c0.9-0.5,2-0.7,3.1-0.7c2.3,0,4.6,0.5,4.6,3.3v4.3c0,0.8,0,1.7,0.4,2.5h-3.2   c-0.1-0.3-0.2-0.6-0.2-0.9c-0.8,0.9-2.1,1.2-3.2,1.2c-1.9,0-3.4-0.9-3.4-3c0-3.2,3.5-3,5.7-3.4c0.6-0.1,0.9-0.3,0.9-0.9   c0-0.7-0.9-1-1.6-1c-0.9,0-1.5,0.4-1.6,1.2H345.1z M349.3,199.6c1.5,0,2.1-0.9,2-2.9c-0.5,0.3-1.3,0.3-2,0.5   c-0.7,0.2-1.3,0.5-1.3,1.3C347.9,199.2,348.6,199.6,349.3,199.6z"/>
	<path d="M356.4,187.7h3v3.2c0,1.9-0.9,3.3-3,3.7V193c0.8-0.2,1.4-0.9,1.4-1.8h-1.4V187.7z"/>
	<path d="M363.8,198c0,0.5,0.2,0.9,0.5,1.1c0.3,0.2,0.7,0.3,1.2,0.3c0.6,0,1.5-0.3,1.5-1c0-0.8-1-0.9-1.6-1c-2-0.5-4.6-0.6-4.6-3.2   c0-2.4,2.6-3,4.5-3c2.2,0,4.4,0.6,4.5,3.2h-3c0-0.4-0.2-0.7-0.4-0.9c-0.3-0.2-0.6-0.2-1-0.2c-0.5,0-1.4,0.1-1.4,0.7   c0,0.9,2.2,1.1,3.6,1.4c2,0.4,2.5,1.8,2.5,2.7c0,2.6-2.5,3.5-4.7,3.5c-2.3,0-4.7-0.8-4.8-3.5H363.8z"/>
	<path d="M384.2,187.4c4.3,0,6.7,3.1,6.7,7.1c0,3.9-2.4,7.1-6.7,7.1c-4.3,0-6.7-3.1-6.7-7.1C377.5,190.6,379.9,187.4,384.2,187.4z    M384.2,198.5c2.3,0,3.2-2,3.2-4c0-2-0.9-4-3.2-4c-2.3,0-3.2,2-3.2,4C381,196.5,381.9,198.5,384.2,198.5z"/>
	<path d="M392.8,187.7h3.2v13.6h-3.2V187.7z"/>
	<path d="M403.7,202.2c-0.8,2.2-1.9,2.4-4.1,2.4H398V202h1.1c0.7,0,1.3-0.4,1.3-1.1c0-0.5-0.6-2.1-0.8-2.6l-2.5-6.9h3.4l1.9,6.4h0   l1.9-6.4h3.3L403.7,202.2z"/>
	<path d="M408.6,191.4h3.1v1.3h0c0.6-1,1.6-1.6,2.8-1.6c1.2,0,2.3,0.4,2.9,1.6c0.8-1,1.7-1.6,3.1-1.6c3.1,0,3.5,2.4,3.5,4.3v5.9   h-3.2v-5.8c0-1.1-0.5-1.7-1.3-1.7c-1.4,0-1.5,1.1-1.5,2.7v4.8h-3.2v-5.6c0-1.2-0.3-1.9-1.2-1.9c-1.2,0-1.7,0.7-1.7,2.7v4.8h-3.2   V191.4z"/>
	<path d="M426.2,191.4h3.1v1.1h0c0.6-0.9,1.6-1.4,2.7-1.4c3.1,0,4.4,2.7,4.4,5.4c0,2.6-1.4,5-4.2,5c-1.2,0-2.1-0.5-2.8-1.3h0v4.4   h-3.2V191.4z M429.3,196.2c0,1.7,0.5,2.8,2,2.8c1.4,0,1.9-1.5,1.9-2.8c0-1.3-0.5-2.6-1.9-2.6C430.4,193.6,429.3,194.2,429.3,196.2z   "/>
	<path d="M441.5,190.2h-3.2v-2.5h3.2V190.2z M438.3,191.4h3.2v9.9h-3.2V191.4z"/>
	<path d="M450.1,195c0-0.8-0.8-1.4-1.6-1.4c-1.8,0-2.1,1.5-2.1,2.9c0,1.3,0.6,2.6,1.9,2.6c1.1,0,1.7-0.6,1.8-1.7h3.1   c-0.3,2.6-2.3,4.2-5,4.2c-3,0-5.2-2-5.2-5.1c0-3.1,2-5.4,5.2-5.4c2.4,0,4.6,1.3,4.9,3.9H450.1z"/>
	<path d="M461,187.7h3.6l4.7,8.4h0v-8.4h3.3v13.6h-3.6l-4.7-8.4h0v8.4H461V187.7z"/>
	<path d="M477.8,197.1c0.1,1.3,0.8,2.2,2.2,2.2c0.8,0,1.5-0.4,1.8-1.1h3c-0.6,2.3-2.7,3.3-4.9,3.3c-3.2,0-5.4-1.9-5.4-5.2   c0-3,2.4-5.2,5.3-5.2c3.5,0,5.3,2.7,5.1,6H477.8z M481.8,195.3c-0.1-1.1-0.8-2-1.9-2c-1.1,0-1.9,0.8-2.1,2H481.8z"/>
	<path d="M492.5,193.5h-2v4.5c0,0.8,0.5,0.9,1.2,0.9c0.3,0,0.6,0,0.8,0v2.4c-0.6,0-1.2,0.1-1.8,0.1c-2.8,0-3.5-0.8-3.5-3.5v-4.4   h-1.6v-2.1h1.6v-3h3.2v3h2V193.5z"/>
	<path d="M505.9,201.3h-3.3l-1.6-6.6h0l-1.5,6.6h-3.3l-3.1-9.9h3.3l1.7,6.4h0l1.4-6.4h3.1l1.4,6.4h0l1.6-6.4h3.3L505.9,201.3z"/>
	<path d="M514.5,191.1c3.1,0,5.2,2.3,5.2,5.2c0,3-2.1,5.2-5.2,5.2c-3.1,0-5.2-2.2-5.2-5.2C509.3,193.4,511.4,191.1,514.5,191.1z    M514.5,199.1c1.5,0,2-1.5,2-2.7c0-1.3-0.5-2.8-2-2.8s-2,1.5-2,2.8C512.5,197.6,513,199.1,514.5,199.1z"/>
	<path d="M521.4,191.4h3.1v1.7h0c0.5-1.3,1.6-1.9,3-1.9c0.2,0,0.5,0,0.8,0.1v2.9c-0.4-0.1-0.8-0.2-1.2-0.2c-1.6,0-2.4,1.1-2.4,2.3   v4.9h-3.2V191.4z"/>
	<path d="M529.4,187.7h3.2v7l2.9-3.3h3.7l-3.6,3.7l4.1,6.1h-3.9l-2.4-4l-0.8,0.8v3.2h-3.2V187.7z"/>
</g>
<g>
	<g>
		<g>
			<path class="st0" d="M257.2,144.5c-0.4-5.1-4.6-9.1-9.8-9.1c-5.5,0-9.9,4.4-9.9,9.9c0,5.4,4.4,9.9,9.9,9.9c0.3,0,0.6,0,0.9,0     c0-0.2,0-0.5,0-0.7c0-0.3,0-0.6,0-0.9c-0.3,0-0.6,0.1-0.9,0.1c-4.5,0-8.2-3.7-8.2-8.2c0-4.5,3.7-8.2,8.2-8.2c4.4,0,8,3.4,8.2,7.8     c0,0.2,0,0.3,0,0.5c0,0.4,0,0.9-0.1,1.3c-0.5,3.1-2.6,5.5-5.5,6.5c-0.1,0.4-0.1,0.9-0.1,1.3c0,0.2,0,0.3,0,0.5     c3.9-1,6.9-4.5,7.3-8.6c0-0.3,0-0.6,0-0.9C257.3,145,257.3,144.8,257.2,144.5z"/>
			<path class="st1" d="M257.2,146.2c0-0.3,0-0.6,0-0.9c0-0.3,0-0.5,0-0.7c0.3,0,0.6,0,0.9,0c0.3,0,0.6,0,0.8,0     c0.6,0,1.1,0.1,1.6,0.3c4,1,7,4.5,7.4,8.7c-0.6-0.1-1.2-0.2-1.7-0.4c-0.5-3.1-2.7-5.6-5.6-6.6c-0.5-0.2-1.1-0.3-1.7-0.4     c-0.3,0-0.6,0-0.8,0C257.8,146.2,257.5,146.2,257.2,146.2z M266.3,154.9c-0.3,4.3-3.8,7.7-8.2,7.7c-4.4,0-8-3.4-8.2-7.8     c0-0.2,0-0.3,0-0.5c0-0.4,0-0.9,0.1-1.3c0.5-3.1,2.6-5.5,5.5-6.5c0.1-0.4,0.1-0.8,0.1-1.3c0-0.2,0-0.3,0-0.5     c-3.9,1-6.9,4.5-7.3,8.6c0,0.3,0,0.6,0,0.9c0,0.3,0,0.5,0,0.7c0.4,5.1,4.6,9.1,9.8,9.1c5.2,0,9.4-4,9.8-9.1     C267.4,155.1,266.8,155,266.3,154.9z"/>
			<path class="st2" d="M269.7,153.5c0,0.3,0,0.6,0,0.9c0,0.3,0,0.5,0,0.8c-0.3,0-0.6,0-0.9,0c-0.3,0-0.6,0-0.8,0     c-0.6,0-1.1-0.1-1.6-0.3c-4-1-7-4.5-7.4-8.7c0.6,0.1,1.2,0.2,1.7,0.4c0.5,3.1,2.7,5.6,5.6,6.6c0.5,0.2,1.1,0.3,1.7,0.4     c0.3,0,0.5,0,0.8,0C269.1,153.5,269.4,153.5,269.7,153.5z M278.6,144.5c-0.4-5.1-4.7-9.1-9.8-9.1c-5.2,0-9.4,4-9.8,9.1     c0.6,0,1.1,0.1,1.6,0.3c0.3-4.3,3.8-7.7,8.2-7.7c4.4,0,7.9,3.4,8.2,7.7c0,0.2,0,0.3,0,0.5c0,0.4,0,0.8-0.1,1.2     c-0.5,3.1-2.6,5.6-5.5,6.6c-0.1,0.4-0.1,0.8-0.1,1.2c0,0.2,0,0.3,0,0.5c4-1,6.9-4.5,7.3-8.7c0-0.3,0-0.6,0-0.9     C278.6,145,278.6,144.8,278.6,144.5z"/>
			<path class="st3" d="M278.6,146.2c0-0.3,0-0.6,0-0.9c0-0.3,0-0.5,0-0.8c0.3,0,0.6,0,0.9,0c0.3,0,0.5,0,0.8,0     c0.6,0,1.1,0.1,1.6,0.3c4,1,7,4.5,7.4,8.7c-0.6-0.1-1.2-0.2-1.7-0.4c-0.5-3.1-2.7-5.6-5.6-6.6c-0.5-0.2-1.1-0.3-1.7-0.4     c-0.3,0-0.6,0-0.8,0C279.2,146.1,278.9,146.1,278.6,146.2z M287.7,154.8c-0.3,4.3-3.8,7.7-8.2,7.7c-4.4,0-7.9-3.4-8.2-7.7     c0-0.2,0-0.3,0-0.5c0-0.4,0-0.8,0.1-1.2c0.5-3.1,2.6-5.6,5.5-6.6c0.1-0.4,0.1-0.8,0.1-1.2c0-0.2,0-0.3,0-0.5     c-4,1-6.9,4.5-7.3,8.7c0,0.3,0,0.6,0,0.9c0,0.3,0,0.5,0,0.8c0.4,5.1,4.7,9.1,9.8,9.1c5.2,0,9.4-4,9.8-9.1     C288.8,155.1,288.2,155,287.7,154.8z"/>
			<path class="st4" d="M290.1,135.4c-5.2,0-9.4,4-9.8,9.1c0.6,0,1.1,0.1,1.6,0.3c0.3-4.3,3.8-7.7,8.2-7.7c4.5,0,8.2,3.7,8.2,8.2     c0,4.5-3.7,8.2-8.2,8.2c-0.3,0-0.6,0-0.8,0c-0.6-0.1-1.2-0.2-1.7-0.4c-2.9-0.9-5.1-3.5-5.6-6.6c-0.5-0.2-1.1-0.3-1.7-0.4     c0.4,4.2,3.4,7.7,7.4,8.7c0.5,0.1,1.1,0.2,1.6,0.3c0.3,0,0.5,0,0.8,0c5.5,0,9.9-4.4,9.9-9.9C300,139.8,295.6,135.4,290.1,135.4z"/>
		</g>
		<g>
			<radialGradient id="SVGID_1_" cx="268.3478" cy="59.9515" r="38.5813" gradientUnits="userSpaceOnUse">
				<stop offset="0" style="stop-color:#FFD300"/>
				<stop offset="0.1418" style="stop-color:#FECA03"/>
				<stop offset="0.3729" style="stop-color:#FBB20D"/>
				<stop offset="0.6632" style="stop-color:#F58A1C"/>
				<stop offset="0.725" style="stop-color:#F48120"/>
				<stop offset="1" style="stop-color:#EF4E23"/>
			</radialGradient>
			<path class="st5" d="M255.1,77.3c1.1,1.1,2.3,2.3,3.6,3.7c-0.7,0.6-1.5,1.2-2.3,1.8c-2.5,2.2-5.1,4.6-7.9,6.5     c-4.3,1.6-7.4,0.8-9.3-1.1c-0.8-0.8-1.3-1.8-1.7-2.9c0.7,1.5,1.6,2.7,3.7,2.8c4,0.1,9.1-5.5,13.2-11.5     C254.6,76.8,254.8,77,255.1,77.3z M295,87.4c1.5-1.6,2.3-3.2,2.5-4.6c-4.6,0-10.7-1.7-15.6-4.5c-6-3.4-9.5-8-9.1-12     c0.7-6.8,10.9-7.5,17.1-6.2c5.8,1.3,14.3,5.7,14.1,12.7c1-5.9-4.5-12.4-10.9-15.6c-0.8-0.3-1.5-0.6-2.3-0.8     c-3-0.8-6.2-1.4-10.1-1.6c-1.3-0.1-1.6-0.1-3.1-0.1c-0.6,0-1.7,0.1-2,0.1c-0.4,0-0.6-0.2-0.4-0.7c0.9-2.6,0.4-4.7-1.7-5.2     c-2.1-0.5-3.5,1.6-4,2.8c-0.4,0.8-1.1,1.2-0.9-0.1c0.6-5.2-0.7-13.2-4.1-16.4c-2.4-1.5-4.9-1.1-7.6,0.4c-2.3,1.3-4.4,3-6.3,4.9     c0,0-0.1,0.1-0.1,0.1c3.3-3,6.4-5.1,9.9-4.3c5.7,1.3,4.6,17.4,0.4,28.1c-0.6,1.6-1.6,3.6-2.8,5.9c1.6,2.5,3.1,5.2,4.7,7.9     c0,0,0,0.1,0.1,0.1h0c4.8-2.3,9.3-1.6,15.1,3.2c2.4,1.9,6,5.5,9.6,9.5C290.5,90.5,293.2,89.4,295,87.4z"/>
			<linearGradient id="SVGID_2_" gradientUnits="userSpaceOnUse" x1="245.8785" y1="95.5962" x2="270.8655" y2="37.5769">
				<stop offset="0" style="stop-color:#00652E"/>
				<stop offset="1.613033e-02" style="stop-color:#076A2F"/>
				<stop offset="0.1174" style="stop-color:#2D8837"/>
				<stop offset="0.2179" style="stop-color:#4BA03D"/>
				<stop offset="0.3162" style="stop-color:#61B141"/>
				<stop offset="0.4115" style="stop-color:#6EBB43"/>
				<stop offset="0.5" style="stop-color:#72BE44"/>
				<stop offset="0.5853" style="stop-color:#6DBB44"/>
				<stop offset="0.6819" style="stop-color:#60B443"/>
				<stop offset="0.784" style="stop-color:#49A842"/>
				<stop offset="0.8899" style="stop-color:#299640"/>
				<stop offset="0.9979" style="stop-color:#01803E"/>
				<stop offset="1" style="stop-color:#00803E"/>
			</linearGradient>
			<path class="st6" d="M243.6,71c3.8-0.9,6.2,1.1,11.5,6.3c5.2,4.8,9.6,8.2,13.7,10.5c2.4,1.3,5.6,2.4,9,3.1l0,0     c-2.4-0.5-4.4-1.5-6-2.5c-3.7-2.4-6.6-6.1-9.1-10.1c-4.3-6.9-7.2-13.5-14.5-18.5c-0.3-0.2-0.6-0.5-0.6-0.8c0-0.6,0.4-0.7,0.9-2.3     c0.6-1.8,0.5-4-1.5-4.6c-1.6-0.5-2.8,0.1-3.7,1.2c-0.2,0.3-0.5,0.9-0.7,0.7c-0.2-0.1,0.2-1.1,0.3-1.4c2.5-6.9,7.6-13.4,14-17     c2.7-1.6,5.2-2,7.6-0.4c-1.4-1.2-3.2-1.7-5-1.7c-0.3,0-0.6,0-0.9,0c-3.7,0.3-7.1,1.9-10.2,4.1c-10.1,6.9-18.1,20.1-19.8,32.4     c-0.8,5.4-0.6,10.8,1.6,15.7c3.8,7.8,12.7,7.4,18.3,3.5C234,94.8,233.7,72.8,243.6,71z"/>

				<radialGradient id="SVGID_3_" cx="441.674" cy="107.0834" r="10.9208" gradientTransform="matrix(3.868 0 0 3.868 -1408.984 -340.3192)" gradientUnits="userSpaceOnUse">
				<stop offset="0" style="stop-color:#00BFF2"/>
				<stop offset="0.2846" style="stop-color:#0096D0"/>
				<stop offset="0.6276" style="stop-color:#006BAB"/>
				<stop offset="0.8022" style="stop-color:#005A9D"/>
			</radialGradient>
			<path class="st7" d="M304,72.8c-0.3,1.6-0.6,2-1.6,1.2c-1-0.8-2.7-1.3-3.9,0c-3,3.1,1.8,7.7-3.6,13.4c-5.9,6.3-19.3,4.1-26.2,0.4     c-4.2-2.3-8.5-5.7-13.7-10.5c2.5,2.5,5.6,5.7,9.1,9.5c8.2,8.7,17.5,12.1,25.5,12.2c10.4,0.1,21.4-6.8,21.5-18.5     c0-10.4-9.3-20.2-18.1-23.3C299.6,60.4,305,66.8,304,72.8z"/>
		</g>
		<path class="st8" d="M309.5,114.4c-1.8,0-3.5,0.5-5.1,1.6c0.7-2.9,2.8-5.1,5.5-6.7c0.9-0.6,1.9-1.1,2.3-2.1    c0.2-0.6,0.2-1.4-0.6-1.5c-0.5,0-1.1,0.3-1.5,0.5c-4.6,2.6-8.1,6.7-8.8,12c-1.2,1.2-2.3,2.4-3.4,3.9c0,0,0,0,0,0v-9.5    c0-0.7-0.4-0.9-0.8-0.9c-0.4,0-1,0.3-1.3,0.5l-2.2,1.4c-0.7,0.4-1,0.8-0.9,1.4c0.1,1,1.3,1.1,2.1,0.7l0,10.6    c0,0.4,0.2,0.9,0.7,0.9c0.5,0,0.8-0.2,1.3-0.7c1.4-1.4,2.9-3.3,4.7-5c0.6,3.2,3.1,5.9,6.6,5.9c3.9,0,7.1-3.7,7-7.3    C314.9,116.7,312.5,114.4,309.5,114.4z M311.6,122.3c-0.4,0.8-1.3,1.3-2.3,1.3c-2.7,0.1-4.5-2.1-5-4.8c1.1-0.6,2.3-1.1,3.6-1.1    c1.3,0,2.4,0.6,3.1,1.4C311.8,120,312.1,121.3,311.6,122.3z M285.3,112.1c-3.8,0-6.9,3.3-7.6,6.9c-0.3,1.4-0.8,2.3-1.9,3.2    c-1.3,1.1-2.8,1.6-4.4,1.6c-0.8,0-2.1-0.3-2.2-1.3c-0.1-0.6,0.4-1.2,0.8-1.6c0.8-0.8,1.4-1.3,2.2-2.1c1.3-1.3,2.5-2.3,3.7-3.8    c1.3-1.6,2.2-3.4,2.1-5.3c-0.2-2.9-2.3-4.8-5.3-4.8c-2.1,0-4.1,0.9-5.6,2.2c-0.3,0.3-0.6,0.7-0.8,1.1c-0.2,0.3-0.3,0.7-0.3,1    c0,0.5,0.5,1,1,1c0.4,0,0.8-0.2,1.2-0.5c0.9-0.7,2-1.3,3.1-1.4c2.2-0.1,3.3,1.3,3.3,2.8c0.1,1.2-0.5,2.2-1.2,3.1    c-1,1.2-1.9,2-3.1,3.1c-1,0.9-1.9,1.7-2.8,2.6c-1.1,1.1-1.9,2.2-1.9,3.8c0.1,2.2,2.3,3.3,4.2,3.3c3.1,0,6.1-1.7,8.2-4    c0,0,0.1-0.1,0.1,0c1,2.4,3.2,4,5.8,4c4.3,0,7.7-4.3,7.6-8.3C291.5,115.3,288.9,112.1,285.3,112.1z M285.4,123.6    c-2.8,0-4.6-2.4-4.6-5c0-1.8,1-3.2,3-3.2c2.8,0,4.7,2.5,4.7,5C288.4,122.3,287.4,123.6,285.4,123.6z M257.7,112.1    c-2-0.1-3.9,1.1-5.1,2.8c-0.6,0.9-1.5,2.5-2.6,4.3c-1.3,2.3-2.6,4.6-3.6,4.5c-0.6,0-0.8-0.6-0.8-1.2c-0.1-1.8,0-3.5,0-5.2    c0-0.5,0-0.9-0.3-1.1c-0.5-0.3-1.7-0.4-2.4,0.6c-1.5,1.9-3,4-4.6,5.7c-0.7,0.7-1.5,1.3-2.5,1.3c-0.7,0-1.1-0.1-1.8-0.9    c-1-1.1-1.8-3-2.2-3.9c-0.1-0.1,0-0.2,0.1-0.2c3.8-1.1,8.5-3.6,8.4-8.4c0-3.3-2.5-5.4-5.8-5.5c-3.7-0.1-7.3,1.7-9.4,4.8    c-3.5,5.1-2.9,11.7-1.8,16.2c0.1,0.6,0.6,0.8,1.1,0.8c1.3,0,2.7-1.5,2.4-2.8c-1.8-6.7-1.3-10.5,0.4-12.9c1.2-1.7,3.3-2.7,5.4-2.8    c2.2,0,4.6,1,4.5,3.5c-0.1,3.2-4.1,4.2-6.7,4.4c-0.7,0.1-1.4,0.3-1.9,0.9c-0.6,0.8-0.5,1.7-0.3,2.7c0.5,1.7,1.3,3.1,2.2,4.6    c0.8,1.3,2.2,2.6,3.8,2.7c2.4,0.1,3.8-1.4,5.2-2.8c0.9-1,1.7-2,2.5-3c0.1-0.1,0.1,0,0.1,0c0,2.6,0,5.9,3.1,5.8    c1.7,0,2.8-1.2,3.7-2.4c0.8-1,1.5-2.2,2.2-3.3c0.1-0.1,0.1-0.1,0.1,0c0.6,2.8,3,5.7,6.1,5.8c4.2,0.1,6.7-4.4,6.5-8    C263.6,115.8,261.2,112.2,257.7,112.1z M258.8,123.6c-2.4,0-4.7-3.7-4.5-6.2c0.1-1.1,0.7-1.9,2-1.9c2.4,0,4.5,3.4,4.4,5.7    C260.6,122.4,260.1,123.6,258.8,123.6z M243.2,111.9c0-1.2,1-2.2,2.2-2.2c1.2,0,2.1,1,2,2.2c0,1.2-1,2.2-2.2,2.2    C244,114.1,243.1,113.1,243.2,111.9z M317.2,124v3h-0.3v-3h-1v-0.3h2.3v0.3H317.2z M322.3,127l-0.3-2.1c-0.1-0.4-0.1-0.7-0.1-0.8    h0c0,0.1-0.1,0.3-0.2,0.5l-0.8,2.4h-0.4l-0.8-2.3c-0.1-0.2-0.1-0.5-0.2-0.7h0c0,0.3,0,0.5-0.1,0.9l-0.2,2.1h-0.3l0.5-3.2h0.4    l0.8,2.3c0.1,0.2,0.1,0.4,0.2,0.6h0c0.1-0.2,0.1-0.4,0.2-0.6l0.8-2.3h0.4l0.5,3.2H322.3z"/>
	</g>
</g>
<g>
	<g>
		<g>
			<g>
				<g>

						<radialGradient id="SVGID_4_" cx="888.3186" cy="-1607.4442" r="107.7891" gradientTransform="matrix(0.257 0.2619 -0.3378 0.3315 -248.1871 356.0238)" gradientUnits="userSpaceOnUse">
						<stop offset="0.7" style="stop-color:#F18822"/>
						<stop offset="1" style="stop-color:#E53429"/>
					</radialGradient>
					<path class="st9" d="M554.6,67.4c-4.4,0-8.4-2.1-14-5.4c-2,1-4.2,1.8-7,2.2c0.7,1.9,1.2,4,1.4,6.2c1.2,14-3.8,19.6-6.2,22.3       c-0.2,0.2-0.3,0.4-0.4,0.5c-0.4,0.5-0.7,0.8-0.7,1.1c0,0.1,0,0.1,0,0.1c0.1,1.1,1.2,1,1.4,1c4.3-0.5,14.4-7.9,20.2-13.9       c5.5-5.7,11.3-14,11.4-19.7c0,0,0-0.1,0-0.1C560.7,64.8,558.5,67.4,554.6,67.4z"/>
				</g>
				<g>

						<radialGradient id="SVGID_5_" cx="934.4615" cy="-1569.5894" r="137.2332" gradientTransform="matrix(0.3669 0 0 0.3669 197.1021 645.6263)" gradientUnits="userSpaceOnUse">
						<stop offset="0" style="stop-color:#FFDB05"/>
						<stop offset="0.1373" style="stop-color:#FED506"/>
						<stop offset="0.3171" style="stop-color:#FBC50A"/>
						<stop offset="0.5204" style="stop-color:#F7AA11"/>
						<stop offset="0.741" style="stop-color:#F1841A"/>
						<stop offset="0.9732" style="stop-color:#E95426"/>
						<stop offset="1" style="stop-color:#E84E27"/>
					</radialGradient>
					<path class="st10" d="M555.7,62.4c0,2.3-1.7,4.3-4.1,4.3c-1.6,0-3.3-0.7-3.9-1c-2.1-0.9-4.4-2.2-7-3.7c0.3-0.1,7.2-3.6,11-3.6       C553.9,58.4,555.7,60.1,555.7,62.4z M533.6,64.3c-1.2,0.2-2.5,0.3-4,0.3c-11.6,0-26.9-9.3-26.9-20.7c0-4.4,3.6-8,7.8-8       c-5.2,0-10.4,4.6-10.4,11.7c0,17.4,27.1,25.1,30.5,34.9c2,5.6-0.3,8.6-1.9,10.3c2.4-2.7,7.4-8.3,6.2-22.3       C534.8,68.2,534.3,66.2,533.6,64.3z"/>
				</g>
				<g>

						<linearGradient id="SVGID_6_" gradientUnits="userSpaceOnUse" x1="523.575" y1="49.5502" x2="497.0854" y2="21.5505" gradientTransform="matrix(0.9962 -8.720000e-02 8.720000e-02 0.9962 6.5196 60.2263)">
						<stop offset="0" style="stop-color:#E42328"/>
						<stop offset="0.3366" style="stop-color:#E12429"/>
						<stop offset="0.6068" style="stop-color:#D7252A"/>
						<stop offset="0.8533" style="stop-color:#C6282D"/>
						<stop offset="1" style="stop-color:#B82A2F"/>
					</linearGradient>
					<path class="st11" d="M522.9,63.6c-6.7-1.8-12.2-6.1-12.2-10.4c0-2.9,2.7-4.3,5.4-4.3c5.5,0,8.9,4.4,24.5,13.1       c-10.6-8.3-18.8-26.2-30-26.2c-4.2,0-7.8,3.6-7.8,8C502.7,53.1,512.9,61,522.9,63.6z"/>
				</g>
				<g>

						<linearGradient id="SVGID_7_" gradientUnits="userSpaceOnUse" x1="542.1753" y1="46.1051" x2="541.5867" y2="52.8292" gradientTransform="matrix(0.9962 -8.720000e-02 8.720000e-02 0.9962 6.5196 60.2263)">
						<stop offset="0" style="stop-color:#F8AD1D"/>
						<stop offset="1" style="stop-color:#F29122"/>
					</linearGradient>
					<path class="st12" d="M554.1,55.2c-4.8,0-8,4.1-13.5,6.9c0.3-0.1,7.2-3.6,11-3.6c2.3,0,4.1,1.7,4.1,4c0,2.3-1.7,4.3-4.1,4.3       c-1.6,0-3.3-0.7-3.9-1c2.4,1.1,4.6,1.7,7,1.7c3.9,0,6-2.6,6-5.6C560.7,58.3,558.2,55.2,554.1,55.2z"/>
				</g>
				<g>
					<path class="st13" d="M523.9,51.8c3.5,2.5,7.5,6.6,9.7,12.4c2.8-0.4,5.1-1.2,7-2.2C532.3,57.4,527.4,54,523.9,51.8z"/>
				</g>
			</g>
			<g>
				<g>
					<path class="st14" d="M529.3,138c-0.2-0.1-0.4-0.1-0.7-0.1c-1.7,0-5.3,1.1-8.6,3.2c-2.3,1.4-6.1,4.3-6.6,8.2       c-0.2,1.8,0.2,3.3,1.1,4.4c1.6,1.8,4.5,2,5.6,2c0.7,0,1.2-0.1,1.3-0.1c0,0,0,0,0,0c0,0,0,0,0-0.1c0,0,0,0-0.2-0.1       c-1.9-0.3-3.2-1-3.9-2.1c-0.8-1.2-0.8-2.9-0.1-5.1c1.1-3.3,3-5.4,5.1-6.7c2.8-1.8,6.4-3,7-3.3       C529.4,138.1,529.4,138.1,529.3,138C529.4,138,529.4,138,529.3,138z"/>
				</g>
				<g>
					<path class="st15" d="M526,142c-0.2,0.1-0.4,0.3-0.6,0.5c-1.1,1.3-2.5,4.8-3.1,8.7c-0.4,2.6-0.6,7.5,2,10.3       c1.3,1.4,2.7,2,4.1,2c2.5-0.1,4.4-2.1,5.2-3c0.4-0.5,0.7-1,0.8-1.1c0,0,0,0,0-0.1c0,0,0,0-0.1,0c0,0-0.1,0-0.2,0.1       c-1.4,1.3-2.8,1.8-4.2,1.6c-1.4-0.2-2.8-1.3-3.9-3.2c-1.8-2.9-2.2-5.8-1.9-8.3c0.4-3.4,1.8-6.8,1.9-7.5       C526.1,142,526.1,142,526,142C526,141.9,526,141.9,526,142z"/>
				</g>
				<g>
					<path class="st16" d="M526,152.1c0.1,0.2,0.2,0.4,0.3,0.7c1,1.4,3.9,3.7,7.6,5.2c2.4,1.1,7,2.5,10.5,0.7c1.6-0.9,2.6-2,3-3.5       c0.6-2.4-0.9-4.8-1.6-5.8c-0.4-0.5-0.7-0.9-0.9-1c0,0,0,0-0.1,0c0,0,0,0,0,0c0,0,0,0.1,0.1,0.2c0.9,1.7,1,3.2,0.5,4.5       c-0.6,1.3-2,2.3-4.1,3c-3.3,1-6.1,0.6-8.5-0.3c-3.1-1.3-6.1-3.5-6.7-3.8C526.1,152,526.1,152,526,152.1       C526,152.1,526,152.1,526,152.1z"/>
				</g>
			</g>
			<g>
				<path class="st17" d="M567.6,109.6c-1.6,0-3.2,0.5-4.7,1.4c0.7-2.7,2.5-4.7,5-6.1c0.8-0.5,1.7-1,2.1-2c0.2-0.5,0.1-1.3-0.6-1.4      c-0.5,0-1,0.3-1.4,0.5c-4.2,2.3-7.4,6.2-8,11c-1.1,1.1-2.1,2.2-3.1,3.5c0,0,0,0,0,0v-8.7c0-0.6-0.3-0.8-0.8-0.8      c-0.4,0-0.9,0.3-1.2,0.4l-2,1.3c-0.6,0.4-0.9,0.7-0.8,1.3c0.1,0.9,1.1,1,1.9,0.6l0,9.7c0,0.4,0.2,0.8,0.7,0.8      c0.4,0,0.8-0.2,1.2-0.6c1.3-1.3,2.7-3.1,4.3-4.6c0.6,2.9,2.8,5.4,6,5.4c3.5,0,6.4-3.4,6.4-6.7      C572.6,111.8,570.4,109.6,567.6,109.6 M569.6,116.9c-0.4,0.8-1.2,1.2-2.1,1.2c-2.5,0.1-4.1-2-4.5-4.4c1-0.6,2.1-1,3.3-1      c1.2,0,2.2,0.5,2.9,1.3C569.7,114.8,570.1,115.9,569.6,116.9 M545.6,107.6c-3.5,0-6.3,3-6.9,6.3c-0.2,1.3-0.8,2.1-1.7,2.9      c-1.2,1-2.6,1.5-4,1.5c-0.7,0-1.9-0.2-2.1-1.2c-0.1-0.5,0.3-1.1,0.7-1.5c0.7-0.7,1.3-1.2,2-1.9c1.2-1.1,2.3-2.1,3.3-3.4      c1.2-1.5,2-3.1,1.9-4.8c-0.1-2.6-2.1-4.3-4.9-4.3c-1.9,0-3.7,0.8-5.1,2c-0.3,0.3-0.6,0.6-0.8,1c-0.1,0.3-0.2,0.6-0.2,0.9      c0,0.5,0.4,0.9,0.9,0.9c0.3,0,0.7-0.2,1.1-0.5c0.8-0.7,1.8-1.2,2.8-1.3c2-0.1,3,1.2,3,2.6c0,1.1-0.4,2-1.1,2.8      c-0.9,1.1-1.8,1.9-2.8,2.8c-0.9,0.8-1.7,1.5-2.6,2.4c-1,1-1.8,2-1.7,3.5c0.1,2,2.1,3,3.9,3c2.8,0,5.6-1.6,7.4-3.6      c0,0,0-0.1,0.1,0c0.9,2.1,2.9,3.6,5.3,3.6c4,0,7-3.9,7-7.6C551.2,110.5,548.8,107.5,545.6,107.6 M545.7,118.1      c-2.6,0-4.2-2.2-4.2-4.5c0-1.7,0.9-2.9,2.7-2.9c2.6,0,4.3,2.3,4.3,4.6C548.4,116.9,547.4,118,545.7,118.1 M520.4,107.6      c-1.9-0.1-3.6,1-4.7,2.5c-0.6,0.8-1.4,2.3-2.3,3.9c-1.2,2.1-2.4,4.1-3.2,4.1c-0.5,0-0.7-0.5-0.7-1.1c-0.1-1.6,0-3.2,0-4.8      c0-0.4,0-0.8-0.3-1c-0.5-0.3-1.6-0.3-2.2,0.5c-1.4,1.8-2.7,3.6-4.2,5.2c-0.6,0.7-1.4,1.2-2.3,1.2c-0.6,0-1-0.1-1.7-0.9      c-0.9-1-1.7-2.7-2-3.5c-0.1-0.1,0-0.2,0.1-0.2c3.5-1,7.7-3.3,7.7-7.7c0-3-2.3-4.9-5.3-5c-3.4-0.1-6.7,1.6-8.6,4.4      c-3.2,4.7-2.6,10.6-1.7,14.8c0.1,0.5,0.5,0.8,1,0.8c1.2,0,2.5-1.4,2.2-2.6c-1.6-6.1-1.2-9.5,0.4-11.8c1.1-1.5,3.1-2.5,4.9-2.5      c2,0,4.2,0.9,4.1,3.2c-0.1,2.9-3.8,3.8-6.1,4c-0.6,0.1-1.3,0.3-1.7,0.8c-0.5,0.7-0.5,1.6-0.2,2.5c0.5,1.6,1.2,2.8,2,4.2      c0.7,1.2,2,2.3,3.5,2.4c2.2,0.1,3.5-1.3,4.7-2.6c0.8-0.9,1.5-1.8,2.3-2.8c0.1-0.1,0.1,0,0.1,0c0,2.4,0,5.4,2.8,5.3      c1.5,0,2.5-1.1,3.4-2.2c0.7-0.9,1.3-2,2-3.1c0-0.1,0.1-0.1,0.1,0c0.6,2.6,2.7,5.2,5.5,5.3c3.8,0.1,6.2-4,5.9-7.3      C525.8,111,523.6,107.7,520.4,107.6 M521.3,118c-2.2,0-4.3-3.4-4.1-5.6c0.1-1,0.6-1.8,1.8-1.8c2.2,0,4.1,3.1,4.1,5.2      C523.1,116.9,522.6,118,521.3,118 M507.1,107.4c0-1.1,0.9-2,2-2c1.1,0,1.9,0.9,1.9,2c0,1.1-0.9,2-2,2      C507.9,109.4,507.1,108.5,507.1,107.4 M574.7,118.4v2.7h-0.3v-2.7h-0.9v-0.2h2.1v0.2H574.7z M579.3,121.2l-0.3-1.9      c0-0.3-0.1-0.6-0.1-0.8h0c0,0.1-0.1,0.3-0.1,0.5l-0.7,2.2h-0.3l-0.7-2.1c-0.1-0.2-0.1-0.4-0.2-0.6h0c0,0.2,0,0.5-0.1,0.8      l-0.2,1.9h-0.3l0.4-3h0.4l0.7,2.1c0,0.1,0.1,0.4,0.2,0.6h0c0.1-0.2,0.1-0.3,0.2-0.5l0.7-2.1h0.4l0.4,3H579.3z M520.4,107.6      c-1.9-0.1-3.6,1-4.7,2.5c-0.6,0.8-1.4,2.3-2.3,3.9c-1.2,2.1-2.4,4.1-3.2,4.1c-0.5,0-0.7-0.5-0.7-1.1c-0.1-1.6,0-3.2,0-4.8      c0-0.4,0-0.8-0.3-1c-0.5-0.3-1.6-0.3-2.2,0.5c-1.4,1.8-2.7,3.6-4.2,5.2c-0.6,0.7-1.4,1.2-2.3,1.2c-0.6,0-1-0.1-1.7-0.9      c-0.9-1-1.7-2.7-2-3.5c-0.1-0.1,0-0.2,0.1-0.2c3.5-1,7.7-3.3,7.7-7.7c0-3-2.3-4.9-5.3-5c-3.4-0.1-6.7,1.6-8.6,4.4      c-3.2,4.7-2.6,10.6-1.7,14.8c0.1,0.5,0.5,0.8,1,0.8c1.2,0,2.5-1.4,2.2-2.6c-1.6-6.1-1.2-9.5,0.4-11.8c1.1-1.5,3.1-2.5,4.9-2.5      c2,0,4.2,0.9,4.1,3.2c-0.1,2.9-3.8,3.8-6.1,4c-0.6,0.1-1.3,0.3-1.7,0.8c-0.5,0.7-0.5,1.6-0.2,2.5c0.5,1.6,1.2,2.8,2,4.2      c0.7,1.2,2,2.3,3.5,2.4c2.2,0.1,3.5-1.3,4.7-2.6c0.8-0.9,1.5-1.8,2.3-2.8c0.1-0.1,0.1,0,0.1,0c0,2.4,0,5.4,2.8,5.3      c1.5,0,2.5-1.1,3.4-2.2c0.7-0.9,1.3-2,2-3.1c0-0.1,0.1-0.1,0.1,0c0.6,2.6,2.7,5.2,5.5,5.3c3.8,0.1,6.2-4,5.9-7.3      C525.8,111,523.6,107.7,520.4,107.6 M521.3,118c-2.2,0-4.3-3.4-4.1-5.6c0.1-1,0.6-1.8,1.8-1.8c2.2,0,4.1,3.1,4.1,5.2      C523.1,116.9,522.6,118,521.3,118 M509,109.4c-1.1,0-1.9-0.9-1.9-2c0-1.1,0.9-2,2-2c1.1,0,1.9,0.9,1.9,2      C510.9,108.5,510,109.4,509,109.4 M545.6,107.6c-3.5,0-6.3,3-6.9,6.3c-0.2,1.3-0.8,2.1-1.7,2.9c-1.2,1-2.6,1.5-4,1.5      c-0.7,0-1.9-0.2-2.1-1.2c-0.1-0.5,0.3-1.1,0.7-1.5c0.7-0.7,1.3-1.2,2-1.9c1.2-1.1,2.3-2.1,3.3-3.4c1.2-1.5,2-3.1,1.9-4.8      c-0.1-2.6-2.1-4.3-4.9-4.3c-1.9,0-3.7,0.8-5.1,2c-0.3,0.3-0.6,0.6-0.8,1c-0.1,0.3-0.2,0.6-0.2,0.9c0,0.5,0.4,0.9,0.9,0.9      c0.3,0,0.7-0.2,1.1-0.5c0.8-0.7,1.8-1.2,2.8-1.3c2-0.1,3,1.2,3,2.6c0,1.1-0.4,2-1.1,2.8c-0.9,1.1-1.8,1.9-2.8,2.8      c-0.9,0.8-1.7,1.5-2.6,2.4c-1,1-1.8,2-1.7,3.5c0.1,2,2.1,3,3.9,3c2.8,0,5.6-1.6,7.4-3.6c0,0,0,0,0.1,0c0.9,2.1,2.9,3.6,5.3,3.6      c4,0,7-3.9,7-7.6C551.2,110.5,548.8,107.5,545.6,107.6 M545.7,118.1c-2.6,0-4.2-2.2-4.2-4.5c0-1.7,0.9-2.9,2.7-2.9      c2.6,0,4.3,2.3,4.3,4.6C548.4,116.9,547.4,118,545.7,118.1 M567.6,109.6c-1.6,0-3.2,0.5-4.7,1.4c0.7-2.7,2.5-4.7,5-6.1      c0.8-0.5,1.7-1,2.1-2c0.2-0.5,0.1-1.3-0.6-1.4c-0.5,0-1,0.3-1.4,0.5c-4.2,2.3-7.4,6.2-8,11c-1.1,1.1-2.1,2.2-3.1,3.5      c0,0,0,0,0,0v-8.7c0-0.6-0.3-0.8-0.8-0.8c-0.4,0-0.9,0.3-1.2,0.4l-2,1.3c-0.6,0.4-0.9,0.7-0.8,1.3c0.1,0.9,1.1,1,1.9,0.6l0,9.7      c0,0.4,0.2,0.8,0.7,0.8c0.4,0,0.8-0.2,1.2-0.6c1.3-1.3,2.7-3.1,4.3-4.6c0.6,2.9,2.8,5.4,6,5.4c3.5,0,6.4-3.4,6.4-6.7      C572.6,111.8,570.4,109.6,567.6,109.6 M569.6,116.9c-0.4,0.8-1.2,1.2-2.1,1.2c-2.5,0.1-4.1-2-4.5-4.4c1-0.6,2.1-1,3.3-1      c1.2,0,2.2,0.5,2.9,1.3C569.7,114.8,570.1,115.9,569.6,116.9 M566.4,128.5c0-0.5,0.4-0.8,1.1-0.8c0.3,0,0.7,0.1,1,0.1l0-0.6      c-0.3-0.1-0.7-0.1-1-0.1c-1.2,0-1.9,0.6-1.9,1.5c0,1.6,2.5,1.1,2.5,2.2c0,0.7-0.6,0.9-1.2,0.9c-0.5,0-0.9-0.1-1.2-0.2l0,0.7      c0.3,0.1,0.7,0.1,1.1,0.1c1.1,0,2-0.6,2-1.6C568.9,129.1,566.4,129.6,566.4,128.5z M493.2,130.4c-0.2,0-0.3,0-0.5,0v1.8H492v-5      c0.4,0,0.9,0,1.4,0c1.2,0,1.9,0.6,1.9,1.5C495.2,129.7,494.4,130.4,493.2,130.4z M493.3,127.8c-0.3,0-0.4,0-0.6,0v2      c0.1,0,0.3,0,0.5,0c0.8,0,1.3-0.4,1.3-1.1C494.5,128.2,494.1,127.8,493.3,127.8z M499.5,132.2l-0.4-1.1h-2.3l-0.4,1.1h-0.7l2-5      h0.8l1.9,5H499.5z M498.2,128.8c-0.1-0.3-0.2-0.6-0.3-0.9h0c-0.1,0.2-0.2,0.6-0.3,0.9l-0.7,1.7h1.9L498.2,128.8z M504.1,132.2      l-1.8-2.2h0v2.2h-0.7v-5c0.3,0,0.8,0,1.4,0c1.1,0,1.8,0.5,1.8,1.3c0,0.9-0.7,1.4-1.6,1.4c0.1,0.1,0.3,0.3,0.4,0.5l1.4,1.8H504.1      z M502.8,127.7c-0.2,0-0.4,0-0.5,0v1.7c0.2,0,0.4,0,0.6,0c0.7,0,1.1-0.4,1.1-0.9C503.9,128,503.5,127.7,502.8,127.7z       M509.7,132.2l-0.4-1.1h-2.3l-0.4,1.1h-0.7l2-5h0.8l1.9,5H509.7z M508.4,128.8c-0.1-0.3-0.2-0.6-0.3-0.9h0      c-0.1,0.2-0.2,0.6-0.3,0.9l-0.7,1.7h1.9L508.4,128.8z M511.8,132.2v-5h0.7v4.4h1.8v0.6H511.8z M517.2,130.4v1.8h-0.7v-1.7      l-1.7-3.2h0.8l0.9,1.7c0.2,0.3,0.3,0.6,0.4,0.9h0c0.1-0.3,0.3-0.7,0.5-1l0.9-1.6h0.8L517.2,130.4z M525,132.2l-0.4-2.9      c-0.1-0.6-0.1-1-0.1-1.2h0c-0.1,0.2-0.1,0.5-0.2,0.9l-1.1,3.3h-0.8l-1.1-3.1c-0.1-0.4-0.3-0.8-0.3-1.1h0c0,0.4-0.1,0.8-0.1,1.3      l-0.4,2.9h-0.7l0.7-5h0.9l1.1,3.2c0.1,0.3,0.2,0.7,0.3,0.9h0c0.1-0.3,0.2-0.6,0.3-0.9l1.1-3.2h0.9l0.7,5H525z M528.8,130.4      c-0.2,0-0.3,0-0.5,0v1.8h-0.7v-5c0.4,0,0.9,0,1.4,0c1.2,0,1.8,0.6,1.8,1.5C530.9,129.7,530.1,130.4,528.8,130.4z M529,127.8      c-0.3,0-0.4,0-0.6,0v2c0.1,0,0.3,0,0.5,0c0.8,0,1.3-0.4,1.3-1.1C530.1,128.2,529.7,127.8,529,127.8z M532.4,132.2v-5h0.7v5      H532.4z M537.1,132.2c-1.6,0-2.4-0.9-2.4-2.5c0-1.4,0.8-2.7,2.6-2.7c0.4,0,0.8,0,1.2,0.1l-0.1,0.7c-0.4-0.1-0.8-0.2-1.2-0.2      c-1.2,0-1.7,0.9-1.7,2c0,1.2,0.6,1.9,1.8,1.9c0.4,0,0.8-0.1,1.2-0.3l0.1,0.6C538,132.1,537.6,132.2,537.1,132.2z M544.9,132.2      c-1.5,0-2.6-0.9-2.6-2.5c0-1.5,1-2.6,2.7-2.6c0.5,0,1,0.1,1.5,0.2l-0.1,0.7c-0.5-0.2-0.9-0.3-1.4-0.3c-1,0-1.9,0.7-1.9,2      c0,1.2,0.8,1.9,1.9,1.9c0.3,0,0.7-0.1,0.9-0.1v-1.9h0.7v2.3C546.1,132.1,545.5,132.2,544.9,132.2z M551.7,132.2l-0.4-1.1h-2.3      l-0.4,1.1h-0.7l2-5h0.8l1.9,5H551.7z M550.4,128.8c-0.1-0.3-0.2-0.6-0.3-0.9h0c-0.1,0.2-0.2,0.6-0.3,0.9l-0.7,1.7h1.9      L550.4,128.8z M558.9,132.2l-0.4-2.9c-0.1-0.6-0.1-1-0.1-1.2h0c-0.1,0.2-0.1,0.5-0.2,0.9l-1.1,3.3h-0.8l-1.1-3.1      c-0.1-0.4-0.3-0.8-0.3-1.1h0c0,0.4-0.1,0.8-0.1,1.3l-0.4,2.9h-0.7l0.7-5h0.9l1.1,3.2c0.1,0.3,0.2,0.7,0.3,0.9h0      c0.1-0.3,0.2-0.6,0.3-0.9l1.1-3.2h0.9l0.7,5H558.9z M561.4,132.2v-5h2.7v0.6h-2v1.6h1.9v0.6h-1.9v1.7h2v0.6H561.4z"/>
			</g>
		</g>
	</g>
</g>
<g>
	<rect x="338.3" y="50.2" width="2.5" height="98"/>
	<rect x="469.1" y="50.2" width="2.5" height="98"/>
</g>
<g>
	<g>
		<polygon class="st18" points="355.3,50.2 375.8,85 405.1,85 425.4,50.2   "/>
	</g>
	<polygon class="st18" points="449.1,85 428.2,50.2 370.9,148.2 412.9,148.2  "/>
</g>
</svg>