<svg version="1.1" xmlns="http://www.w3.org/2000/svg" xmlns:xlink="http://www.w3.org/1999/xlink" width="526" height="195"><style xmlns="http://www.w3.org/1999/xhtml"></style><defs/><g transform="translate(0,0)"><g><rect fill="#FFFFFF" stroke="none" x="0" y="0" width="526" height="195"/></g><g transform="translate(0,0) matrix(1,0,0,1,40,100)"><g><g transform="translate(0,0) scale(1,0.75)"><g><path fill="#FFFFFF" stroke="none" d="M 0 0 L 100 0 Q 100 0 100 0 L 100 100 Q 100 100 100 100 L 0 100 Q 0 100 0 100 L 0 0 Q 0 0 0 0 Z"/><g transform="scale(1,1.3333333333333333)"><path fill="none" stroke="none" d="M 0 0 L 100 0 Q 100 0 100 0 L 100 75 Q 100 75 100 75 L 0 75 Q 0 75 0 75 L 0 0 Q 0 0 0 0 Z"/><path fill="none" stroke="#333333" d="M 0 0 M 0 0 L 100 0 Q 100 0 100 0 L 100 75 Q 100 75 100 75 L 0 75 Q 0 75 0 75 L 0 0 Q 0 0 0 0 Z" stroke-miterlimit="10" stroke-width="2"/></g></g></g></g></g><g transform="matrix(1,0,0,1,50,117)"><g transform="translate(221,42) matrix(1,0,0,1,0,0) translate(-221,-42)"><g/></g><g transform="translate(221,42) matrix(1,0,0,1,0,0) translate(-221,-42)"><g/></g><g transform="translate(221,42) matrix(1,0,0,1,0,0) translate(-221,-42)"><g/></g><g transform="translate(221,42) matrix(1,0,0,1,0,0) translate(-221,-42)"><g/><text fill="rgb(0, 0, 0)" stroke="none" font-family="&quot;Arial&quot;" font-size="12px" font-style="normal" font-weight="normal" text-decoration="" line-height="14px" x="29" y="12">EC2</text><text fill="rgb(0, 0, 0)" stroke="none" font-family="&quot;Arial&quot;" font-size="12px" font-style="normal" font-weight="normal" text-decoration="" line-height="14px" x="10" y="40">(</text><text fill="rgb(0, 0, 0)" stroke="none" font-family="&quot;Arial&quot;" font-size="12px" font-style="normal" font-weight="normal" text-decoration="" line-height="14px" x="14" y="40">always</text><text fill="rgb(0, 0, 0)" stroke="none" font-family="&quot;Arial&quot;" font-size="12px" font-style="normal" font-weight="normal" text-decoration="" line-height="14px" x="54" y="40">up</text><text fill="rgb(0, 0, 0)" stroke="none" font-family="&quot;Arial&quot;" font-size="12px" font-style="normal" font-weight="normal" text-decoration="" line-height="14px" x="67" y="40">)</text></g><g transform="translate(221,42) matrix(1,0,0,1,0,0) translate(-221,-42)"><g/></g><g transform="translate(221,42) matrix(1,0,0,1,0,0) translate(-221,-42)"><g/></g><g transform="translate(221,42) matrix(1,0,0,1,0,0) translate(-221,-42)"><g/></g></g><g transform="translate(0,0) matrix(1,0,0,1,160,111.5)"><g><g transform="translate(0,0) scale(1.03,0.52)"><g><path fill="rgb(0,0,0)" stroke="none" d="M 0 0 L 100 0 Q 100 0 100 0 L 100 100 Q 100 100 100 100 L 0 100 Q 0 100 0 100 L 0 0 Q 0 0 0 0 Z" fill-opacity="0"/><g transform="scale(0.970873786407767,1.923076923076923)"><path fill="none" stroke="rbga(0,0,0,0)" d="M 0 0 L 103 0 Q 103 0 103 0 L 103 52 Q 103 52 103 52 L 0 52 Q 0 52 0 52 L 0 0 Q 0 0 0 0 Z" stroke-miterlimit="10" stroke-width="2"/></g></g></g></g></g><g transform="translate(0,0) matrix(1,0,0,1,159,111.5)"><g><g transform="translate(0,0) scale(0.9991119005328597,1)"><g><g transform="scale(1.000888888888889,1)"><path fill="#FFFFFF" stroke="#000000" d="M 27 0 L 2.0781527531083483 0 L 22.056394316163413 26 L 2.0781527531083483 52 L 27 52" stroke-miterlimit="3" stroke-width="2"/></g></g></g></g></g><g transform="translate(0,0) matrix(1,0,0,1,186,111.5)"><g><g transform="translate(0,0) scale(1.04,1)"><g><g><path fill="#FFFFFF" stroke="rgb(0,0,0)" d="M 0 0 L 50 0 Q 50 0 50 0 L 50 52 Q 50 52 50 52 L 0 52 Q 0 52 0 52 L 0 0 Q 0 0 0 0 Z" stroke-opacity="0" stroke-miterlimit="10"/></g><g><g transform="scale(0.9615384615384615,1)"><path fill="none" stroke="#000000" d="M 0 0 L 52 0" stroke-miterlimit="3" stroke-width="2"/></g></g><g><g transform="scale(0.9615384615384615,1)"><path fill="none" stroke="#000000" d="M 52 52 L 0 52" stroke-miterlimit="3" stroke-width="2"/></g></g></g></g></g></g><g transform="matrix(1,0,0,1,188,130)"><g transform="translate(25,1) matrix(1,0,0,1,0,0) translate(-25,-1)"><g/></g><g transform="translate(25,1) matrix(1,0,0,1,0,0) translate(-25,-1)"><g/></g><g transform="translate(25,1) matrix(1,0,0,1,0,0) translate(-25,-1)"><g/><text fill="rgb(0, 0, 0)" stroke="none" font-family="&quot;Arial&quot;" font-size="12px" font-style="normal" font-weight="normal" text-decoration="" line-height="15.5px" x="0" y="13">SQS</text></g><g transform="translate(25,1) matrix(1,0,0,1,0,0) translate(-25,-1)"><g/></g></g><g transform="translate(0,0) matrix(1,0,0,1,238,111.5)"><g><g transform="translate(0,0) scale(1,1)"><g><g transform="scale(1,1)"><path fill="#FFFFFF" stroke="#000000" d="M 0 52 L 5.3 52 L 25 26 L 5.3 0 L 0 0" stroke-miterlimit="3" stroke-width="2"/></g></g></g></g></g><g transform="translate(0,0) matrix(1,0,0,1,280,111.5)"><g><g transform="translate(0,0) scale(1.03,0.52)"><g><path fill="rgb(0,0,0)" stroke="none" d="M 0 0 L 100 0 Q 100 0 100 0 L 100 100 Q 100 100 100 100 L 0 100 Q 0 100 0 100 L 0 0 Q 0 0 0 0 Z" fill-opacity="0"/><g transform="scale(0.970873786407767,1.923076923076923)"><path fill="none" stroke="rbga(0,0,0,0)" d="M 0 0 L 103 0 Q 103 0 103 0 L 103 52 Q 103 52 103 52 L 0 52 Q 0 52 0 52 L 0 0 Q 0 0 0 0 Z" stroke-miterlimit="10" stroke-width="2"/></g></g></g></g></g><g transform="translate(0,0) matrix(1,0,0,1,279,111.5)"><g><g transform="translate(0,0) scale(0.9991119005328597,1)"><g><g transform="scale(1.000888888888889,1)"><path fill="#FFFFFF" stroke="#000000" d="M 27 0 L 2.0781527531083483 0 L 22.056394316163413 26 L 2.0781527531083483 52 L 27 52" stroke-miterlimit="3" stroke-width="2"/></g></g></g></g></g><g transform="translate(0,0) matrix(1,0,0,1,306,111.5)"><g><g transform="translate(0,0) scale(1.04,1)"><g><g><path fill="#FFFFFF" stroke="rgb(0,0,0)" d="M 0 0 L 50 0 Q 50 0 50 0 L 50 52 Q 50 52 50 52 L 0 52 Q 0 52 0 52 L 0 0 Q 0 0 0 0 Z" stroke-opacity="0" stroke-miterlimit="10"/></g><g><g transform="scale(0.9615384615384615,1)"><path fill="none" stroke="#000000" d="M 0 0 L 52 0" stroke-miterlimit="3" stroke-width="2"/></g></g><g><g transform="scale(0.9615384615384615,1)"><path fill="none" stroke="#000000" d="M 52 52 L 0 52" stroke-miterlimit="3" stroke-width="2"/></g></g></g></g></g></g><g transform="matrix(1,0,0,1,308,130)"><g transform="translate(25,1) matrix(1,0,0,1,0,0) translate(-25,-1)"><g/></g><g transform="translate(25,1) matrix(1,0,0,1,0,0) translate(-25,-1)"><g/></g><g transform="translate(25,1) matrix(1,0,0,1,0,0) translate(-25,-1)"><g/><text fill="rgb(0, 0, 0)" stroke="none" font-family="&quot;Arial&quot;" font-size="12px" font-style="normal" font-weight="normal" text-decoration="" line-height="15.5px" x="0" y="13">SNS</text></g><g transform="translate(25,1) matrix(1,0,0,1,0,0) translate(-25,-1)"><g/></g></g><g transform="translate(0,0) matrix(1,0,0,1,358,111.5)"><g><g transform="translate(0,0) scale(1,1)"><g><g transform="scale(1,1)"><path fill="#FFFFFF" stroke="#000000" d="M 0 52 L 5.3 52 L 25 26 L 5.3 0 L 0 0" stroke-miterlimit="3" stroke-width="2"/></g></g></g></g></g><g transform="translate(0,0) matrix(1,0,0,1,400,100)"><g><g transform="translate(0,0) scale(1,0.75)"><g><path fill="#FFFFFF" stroke="none" d="M 0 0 L 100 0 Q 100 0 100 0 L 100 100 Q 100 100 100 100 L 0 100 Q 0 100 0 100 L 0 0 Q 0 0 0 0 Z"/><g transform="scale(1,1.3333333333333333)"><path fill="none" stroke="none" d="M 0 0 L 100 0 Q 100 0 100 0 L 100 75 Q 100 75 100 75 L 0 75 Q 0 75 0 75 L 0 0 Q 0 0 0 0 Z"/><path fill="none" stroke="#333333" d="M 0 0 M 0 0 L 100 0 Q 100 0 100 0 L 100 75 Q 100 75 100 75 L 0 75 Q 0 75 0 75 L 0 0 Q 0 0 0 0 Z" stroke-miterlimit="10" stroke-width="2"/></g></g></g></g></g><g transform="matrix(1,0,0,1,410,117)"><g transform="translate(228,42) matrix(1,0,0,1,0,0) translate(-228,-42)"><g/></g><g transform="translate(228,42) matrix(1,0,0,1,0,0) translate(-228,-42)"><g/></g><g transform="translate(228,42) matrix(1,0,0,1,0,0) translate(-228,-42)"><g/></g><g transform="translate(228,42) matrix(1,0,0,1,0,0) translate(-228,-42)"><g/><text fill="rgb(0, 0, 0)" stroke="none" font-family="&quot;Arial&quot;" font-size="12px" font-style="normal" font-weight="normal" text-decoration="" line-height="14px" x="29" y="12">EC2</text><text fill="rgb(0, 0, 0)" stroke="none" font-family="&quot;Arial&quot;" font-size="12px" font-style="normal" font-weight="normal" text-decoration="" line-height="14px" x="3" y="40">(</text><text fill="rgb(0, 0, 0)" stroke="none" font-family="&quot;Arial&quot;" font-size="12px" font-style="normal" font-weight="normal" text-decoration="" line-height="14px" x="7" y="40">restart</text><text fill="rgb(0, 0, 0)" stroke="none" font-family="&quot;Arial&quot;" font-size="12px" font-style="normal" font-weight="normal" text-decoration="" line-height="14px" x="44" y="40">at</text><text fill="rgb(0, 0, 0)" stroke="none" font-family="&quot;Arial&quot;" font-size="12px" font-style="normal" font-weight="normal" text-decoration="" line-height="14px" x="57" y="40">will</text><text fill="rgb(0, 0, 0)" stroke="none" font-family="&quot;Arial&quot;" font-size="12px" font-style="normal" font-weight="normal" text-decoration="" line-height="14px" x="74" y="40">)</text></g><g transform="translate(228,42) matrix(1,0,0,1,0,0) translate(-228,-42)"><g/></g><g transform="translate(228,42) matrix(1,0,0,1,0,0) translate(-228,-42)"><g/></g><g transform="translate(228,42) matrix(1,0,0,1,0,0) translate(-228,-42)"><g/></g></g><g transform="translate(0,0) matrix(1,0,0,1,51.5,56)"><g><g transform="translate(0,0) scale(1.6,0.29)"><g><path fill="none" stroke="none" d="M 8 0 L 92 0 Q 100 0 100 8 L 100 92 Q 100 100 92 100 L 8 100 Q 0 100 0 92 L 0 8 Q 0 0 8 0 Z"/><g transform="scale(0.625,3.4482758620689657)"><path fill="#FFFFFF" stroke="#BBBBBB" d="M 8 0 L 152 0 Q 160 0 160 8 L 160 20.999999999999996 Q 160 28.999999999999996 152 28.999999999999996 L 8 28.999999999999996 Q 0 28.999999999999996 0 20.999999999999996 L 0 8 Q 0 0 8 0 Z" stroke-miterlimit="10" stroke-width="2"/></g></g></g></g></g><g transform="translate(0,0) matrix(1,0,0,1,147.5,84)"><g><g transform="translate(0,0) scale(1.0299103119769986,1.088534107402032)"><g><path fill="rgb(0,0,0)" stroke="#FFFFFF" d="M 20.653 0.5 L 3.471 0.5" fill-opacity="0" stroke-miterlimit="10" stroke-width="2"/></g><g><path fill="#FFFFFF" stroke="#BBBBBB" d="M 20.653 0.5 L 0 12.713 L 3.471 0.5" stroke-miterlimit="10" stroke-width="2"/></g></g></g></g><g transform="matrix(1,0,0,1,60,64)"><g transform="translate(76,-1) matrix(1,0,0,1,0,0) translate(-76,1)"><g/></g><g transform="translate(76,-1) matrix(1,0,0,1,0,0) translate(-76,1)"><g/></g><g transform="translate(76,-1) matrix(1,0,0,1,0,0) translate(-76,1)"><g/><text fill="rgb(102, 102, 102)" stroke="none" font-family="&quot;Helvetica&quot;" font-size="13px" font-style="normal" font-weight="normal" text-decoration="" line-height="13px" x="0" y="11">fast</text><text fill="rgb(102, 102, 102)" stroke="none" font-family="&quot;Helvetica&quot;" font-size="13px" font-style="normal" font-weight="normal" text-decoration="" line-height="13px" x="25" y="11">stuff</text><text fill="rgb(102, 102, 102)" stroke="none" font-family="&quot;Helvetica&quot;" font-size="13px" font-style="normal" font-weight="normal" text-decoration="" line-height="13px" x="52" y="11">only</text></g><g transform="translate(76,-1) matrix(1,0,0,1,0,0) translate(-76,1)"><g/></g></g><g transform="translate(0,0) matrix(1,0,0,1,331.5,56)"><g><g transform="translate(0,0) scale(1.6,0.29)"><g><path fill="none" stroke="none" d="M 8 0 L 92 0 Q 100 0 100 8 L 100 92 Q 100 100 92 100 L 8 100 Q 0 100 0 92 L 0 8 Q 0 0 8 0 Z"/><g transform="scale(0.625,3.4482758620689657)"><path fill="#FFFFFF" stroke="#BBBBBB" d="M 8 0 L 152 0 Q 160 0 160 8 L 160 20.999999999999996 Q 160 28.999999999999996 152 28.999999999999996 L 8 28.999999999999996 Q 0 28.999999999999996 0 20.999999999999996 L 0 8 Q 0 0 8 0 Z" stroke-miterlimit="10" stroke-width="2"/></g></g></g></g></g><g transform="matrix(1,0,0,1,340,64)"><g transform="translate(134,-1) matrix(1,0,0,1,0,0) translate(-134,1)"><g/></g><g transform="translate(134,-1) matrix(1,0,0,1,0,0) translate(-134,1)"><g/></g><g transform="translate(134,-1) matrix(1,0,0,1,0,0) translate(-134,1)"><g/><text fill="rgb(102, 102, 102)" stroke="none" font-family="&quot;Helvetica&quot;" font-size="13px" font-style="normal" font-weight="normal" text-decoration="" line-height="13px" x="0" y="11">intensive</text><text fill="rgb(102, 102, 102)" stroke="none" font-family="&quot;Helvetica&quot;" font-size="13px" font-style="normal" font-weight="normal" text-decoration="" line-height="13px" x="51" y="11">/</text><text fill="rgb(102, 102, 102)" stroke="none" font-family="&quot;Helvetica&quot;" font-size="13px" font-style="normal" font-weight="normal" text-decoration="" line-height="13px" x="58" y="11">blocking</text><text fill="rgb(102, 102, 102)" stroke="none" font-family="&quot;Helvetica&quot;" font-size="13px" font-style="normal" font-weight="normal" text-decoration="" line-height="13px" x="110" y="11">stuff</text></g><g transform="translate(134,-1) matrix(1,0,0,1,0,0) translate(-134,1)"><g/></g></g><g transform="translate(0,0) matrix(1,0,0,1,371.5,84)"><g><g transform="translate(0,0) scale(1.0299103119769986,1.088534107402032)"><g><path fill="rgb(0,0,0)" stroke="#FFFFFF" d="M 1.828 0.5 L 19.01 0.5" fill-opacity="0" stroke-miterlimit="10" stroke-width="2"/></g><g><path fill="#FFFFFF" stroke="#BBBBBB" d="M 1.828 0.5 L 22.48 12.713 L 19.01 0.5" stroke-miterlimit="10" stroke-width="2"/></g></g></g></g></g></svg>